<?xml version="1.0" standalone="no"?>
<!DOCTYPE svg PUBLIC "-//W3C//DTD SVG 20010904//EN"
 "http://www.w3.org/TR/2001/REC-SVG-20010904/DTD/svg10.dtd">
<svg version="1.0" xmlns="http://www.w3.org/2000/svg"
 width="108.000000pt" height="108.000000pt" viewBox="0 0 108.000000 108.000000"
 preserveAspectRatio="xMidYMid meet">
<metadata>
Created by potrace 1.14, written by Peter Selinger 2001-2017
</metadata>
<g transform="translate(0.000000,108.000000) scale(0.100000,-0.100000)"
fill="#000000" stroke="none">
<path d="M20 1076 c0 -2 50 -21 111 -41 86 -29 121 -36 156 -32 25 3 49 10 53
17 6 9 15 8 38 -4 17 -9 44 -16 60 -16 34 0 84 -42 76 -64 -3 -8 2 -28 11 -45
20 -39 7 -40 -24 -1 -31 39 -57 39 -64 0 -5 -24 -12 -30 -31 -30 -13 0 -26 4
-28 9 -3 10 -22 14 -52 12 -16 -1 -17 -7 -11 -47 7 -50 -3 -70 -42 -85 -13 -5
-28 -20 -33 -34 -5 -14 -14 -25 -19 -25 -22 0 2 -27 33 -38 19 -7 36 -21 39
-31 5 -19 -35 -72 -68 -90 -18 -9 -16 -10 14 -11 20 0 39 -7 47 -17 12 -17 13
-16 14 7 0 13 8 66 17 117 16 83 19 92 38 88 11 -2 23 -4 28 -4 4 -1 7 -11 7
-22 0 -20 2 -19 22 7 26 36 44 54 34 37 -4 -7 -3 -13 2 -13 5 0 15 -13 22 -30
7 -16 17 -30 22 -30 5 0 7 -4 3 -9 -3 -5 0 -13 7 -17 7 -4 10 -4 6 0 -3 4 3
17 15 29 l22 22 -23 3 c-46 7 -47 48 -2 65 12 4 11 6 -2 6 -20 1 -25 21 -5 21
25 0 91 -28 102 -43 9 -13 14 -14 24 -4 8 8 16 9 29 1 39 -25 37 0 -4 38 -41
38 -56 68 -35 68 5 0 28 -16 51 -35 23 -19 47 -39 54 -43 6 -4 17 -25 25 -47
8 -22 16 -45 18 -51 2 -6 -3 -14 -12 -18 -9 -3 -13 -2 -10 4 3 6 -1 10 -9 10
-12 0 -16 -10 -15 -37 2 -47 16 -109 18 -76 2 39 21 35 41 -9 29 -63 27 -81
-9 -76 l-29 4 -4 -99 c-3 -91 -5 -100 -27 -119 -17 -13 -33 -17 -50 -13 -37 9
-76 40 -73 58 1 9 -6 18 -16 22 -24 7 -26 55 -3 71 14 11 10 17 -28 53 -24 23
-47 41 -52 41 -14 0 -10 30 4 31 6 0 1 5 -13 10 -29 11 -56 67 -40 83 12 12
13 29 2 22 -4 -2 -25 4 -47 14 -52 25 -58 24 -71 -3 -15 -34 0 -70 26 -62 14
4 20 2 20 -9 0 -8 12 -21 27 -28 31 -15 53 -72 35 -90 -8 -8 -15 -8 -27 2 -13
11 -18 10 -28 -2 -14 -18 -58 -48 -69 -48 -5 0 -8 12 -9 28 -1 25 -1 25 -11
-8 -5 -19 -19 -41 -29 -48 -11 -8 -32 -25 -47 -38 l-27 -25 50 23 c28 13 54
29 58 35 4 7 28 18 52 24 26 7 45 17 45 25 0 8 5 14 10 14 6 0 10 -5 10 -10 0
-6 12 -15 26 -20 44 -17 89 -58 104 -94 17 -44 104 -92 150 -82 18 3 30 1 30
-5 0 -23 73 -156 103 -186 l31 -33 108 0 109 0 -2 100 c-2 90 -4 100 -21 100
-10 0 -18 7 -18 15 0 8 9 15 20 15 18 0 20 7 20 64 0 53 -3 66 -17 70 -18 6
-31 76 -15 76 17 0 32 52 32 110 0 50 -3 60 -20 65 -11 4 -18 11 -15 16 4 5
-2 9 -12 10 -12 0 -6 6 15 15 39 17 40 23 6 55 -14 13 -35 44 -46 69 -11 25
-25 48 -31 52 -8 4 -5 14 7 27 11 12 14 21 8 21 -22 0 -81 61 -87 90 -8 35
-88 106 -106 94 -8 -4 -9 -3 -5 4 5 9 -62 12 -266 12 -162 0 -267 -4 -259 -9
25 -16 -20 -18 -68 -4 -40 12 -181 19 -181 9z m646 -37 c29 -9 43 -31 44 -66
0 -8 -14 -13 -36 -13 -21 0 -33 4 -29 10 3 6 -1 10 -11 10 -9 0 -22 7 -28 15
-10 14 -39 23 -78 24 -22 1 -23 15 -3 34 15 15 70 10 141 -14z m-196 -208 c13
-32 5 -74 -13 -68 -13 4 -21 97 -8 97 5 0 14 -13 21 -29z m-53 13 c-3 -3 -12
-4 -19 -1 -8 3 -5 6 6 6 11 1 17 -2 13 -5z m404 -64 c6 0 8 -4 5 -9 -4 -5 2
-7 12 -4 12 3 22 -4 30 -21 18 -40 -1 -38 -49 5 -24 23 -36 38 -26 35 10 -3
23 -6 28 -6z m69 -187 c0 -13 -4 -22 -9 -18 -6 3 -14 -2 -19 -11 -9 -15 -12
-15 -40 2 -47 27 -46 41 1 57 48 16 67 8 67 -30z m120 23 c0 -21 -11 -25 -36
-14 -24 11 -29 20 -19 30 10 9 55 -4 55 -16z m-210 -186 c0 -3 16 -4 35 -2 25
3 36 0 41 -12 3 -9 12 -16 20 -16 8 0 13 -6 12 -12 -2 -7 3 -12 10 -10 19 3
14 -56 -7 -77 -10 -10 -29 -51 -41 -90 -12 -39 -26 -71 -32 -71 -6 0 -24 12
-42 27 -26 22 -27 25 -9 21 12 -3 30 0 40 7 17 13 16 14 -10 24 -36 14 -40 14
-31 -1 5 -7 3 -8 -5 -4 -24 15 -32 55 -16 91 7 19 10 35 4 35 -12 0 -12 47 0
54 5 3 7 14 4 24 -3 12 1 19 11 19 9 0 16 -3 16 -7z m200 -190 c0 -5 -2 -10
-4 -10 -2 0 -11 -3 -19 -6 -8 -3 -17 2 -20 10 -5 12 0 16 18 16 14 0 25 -4 25
-10z"/>
<path d="M959 1021 c59 -68 81 -88 81 -73 0 6 -4 14 -10 17 -5 3 -10 11 -10
17 0 7 6 6 15 -2 12 -10 15 -10 15 0 0 10 3 10 15 0 13 -11 15 -5 15 44 l0 56
-86 0 -86 0 51 -59z"/>
<path d="M1067 940 c3 -11 7 -20 9 -20 2 0 4 9 4 20 0 11 -4 20 -9 20 -5 0 -7
-9 -4 -20z"/>
<path d="M550 707 c0 -8 3 -22 6 -31 5 -14 8 -14 30 1 27 17 33 36 9 27 -8 -4
-22 -1 -30 6 -12 10 -15 10 -15 -3z"/>
<path d="M632 665 c-11 -13 -9 -15 13 -15 14 0 25 -5 25 -10 0 -6 8 -5 20 2
19 12 19 14 3 26 -22 16 -45 15 -61 -3z"/>
<path d="M458 263 c7 -3 16 -2 19 1 4 3 -2 6 -13 5 -11 0 -14 -3 -6 -6z"/>
<path d="M131 141 c0 -8 -27 -42 -58 -75 l-58 -61 35 -3 c19 -2 36 1 38 7 2 6
12 11 22 11 31 0 39 21 30 80 -4 30 -8 49 -9 41z"/>
</g>
</svg>
